<?xml version="1.0" encoding="us-ascii" standalone="no"?><svg xmlns="http://www.w3.org/2000/svg" xmlns:xlink="http://www.w3.org/1999/xlink" contentStyleType="text/css" height="969px" preserveAspectRatio="none" style="width:1186px;height:969px;background:#FFFFFF;" version="1.1" viewBox="0 0 1186 969" width="1186px" zoomAndPan="magnify"><defs/><g><rect fill="#FFFFFF" height="198.2361" style="stroke:#181818;stroke-width:1.0;" width="10" x="129.5" y="117.7739"/><rect fill="#FFFFFF" height="121.8241" style="stroke:#181818;stroke-width:1.0;" width="10" x="578.5" y="194.186"/><rect fill="#FFFFFF" height="31.706" style="stroke:#181818;stroke-width:1.0;" width="10" x="578.5" y="441.11"/><rect fill="#FFFFFF" height="95.118" style="stroke:#181818;stroke-width:1.0;" width="10" x="578.5" y="549.228"/><rect fill="#FFFFFF" height="95.118" style="stroke:#181818;stroke-width:1.0;" width="10" x="578.5" y="720.7581"/><rect fill="#FFFFFF" height="31.706" style="stroke:#181818;stroke-width:1.0;" width="10" x="795.5" y="225.892"/><rect fill="#FFFFFF" height="31.706" style="stroke:#181818;stroke-width:1.0;" width="10" x="1009.5" y="580.934"/><rect fill="#FFFFFF" height="31.706" style="stroke:#181818;stroke-width:1.0;" width="10" x="1115" y="752.4641"/><rect fill="none" height="595.9842" style="stroke:#000000;stroke-width:1.5;" width="1109" x="70" y="272.598"/><line style="stroke:#181818;stroke-width:0.5;stroke-dasharray:5.0,5.0;" x1="30" x2="30" y1="84.0679" y2="885.5822"/><line style="stroke:#181818;stroke-width:0.5;stroke-dasharray:5.0,5.0;" x1="134" x2="134" y1="84.0679" y2="885.5822"/><line style="stroke:#181818;stroke-width:0.5;stroke-dasharray:5.0,5.0;" x1="583" x2="583" y1="84.0679" y2="885.5822"/><line style="stroke:#181818;stroke-width:0.5;stroke-dasharray:5.0,5.0;" x1="800" x2="800" y1="84.0679" y2="885.5822"/><line style="stroke:#181818;stroke-width:0.5;stroke-dasharray:5.0,5.0;" x1="906" x2="906" y1="84.0679" y2="885.5822"/><line style="stroke:#181818;stroke-width:0.5;stroke-dasharray:5.0,5.0;" x1="1014" x2="1014" y1="84.0679" y2="885.5822"/><line style="stroke:#181818;stroke-width:0.5;stroke-dasharray:5.0,5.0;" x1="1120" x2="1120" y1="84.0679" y2="885.5822"/><text fill="#000000" font-family="sans-serif" font-size="14" lengthAdjust="spacing" textLength="45" x="5" y="79.9659">Utente</text><ellipse cx="30.5" cy="13.5" fill="#E2E2F0" rx="8" ry="8" style="stroke:#181818;stroke-width:0.5;"/><path d="M30.5,21.5 L30.5,48.5 M17.5,29.5 L43.5,29.5 M30.5,48.5 L17.5,63.5 M30.5,48.5 L43.5,63.5 " fill="none" style="stroke:#181818;stroke-width:0.5;"/><text fill="#000000" font-family="sans-serif" font-size="14" lengthAdjust="spacing" textLength="45" x="5" y="899.5481">Utente</text><ellipse cx="30.5" cy="912.1501" fill="#E2E2F0" rx="8" ry="8" style="stroke:#181818;stroke-width:0.5;"/><path d="M30.5,920.1501 L30.5,947.1501 M17.5,928.1501 L43.5,928.1501 M30.5,947.1501 L17.5,962.1501 M30.5,947.1501 L43.5,962.1501 " fill="none" style="stroke:#181818;stroke-width:0.5;"/><rect fill="#E2E2F0" height="33.0679" rx="2.5" ry="2.5" style="stroke:#181818;stroke-width:0.5;" width="109" x="80" y="50"/><text fill="#000000" font-family="sans-serif" font-size="14" lengthAdjust="spacing" textLength="95" x="87" y="71.9659">CarrelloFrame</text><rect fill="#E2E2F0" height="33.0679" rx="2.5" ry="2.5" style="stroke:#181818;stroke-width:0.5;" width="109" x="80" y="884.5822"/><text fill="#000000" font-family="sans-serif" font-size="14" lengthAdjust="spacing" textLength="95" x="87" y="906.5481">CarrelloFrame</text><rect fill="#E2E2F0" height="33.0679" rx="2.5" ry="2.5" style="stroke:#181818;stroke-width:0.5;" width="81" x="543" y="50"/><text fill="#000000" font-family="sans-serif" font-size="14" lengthAdjust="spacing" textLength="67" x="550" y="71.9659">Controller</text><rect fill="#E2E2F0" height="33.0679" rx="2.5" ry="2.5" style="stroke:#181818;stroke-width:0.5;" width="81" x="543" y="884.5822"/><text fill="#000000" font-family="sans-serif" font-size="14" lengthAdjust="spacing" textLength="67" x="550" y="906.5481">Controller</text><rect fill="#E2E2F0" height="33.0679" rx="2.5" ry="2.5" style="stroke:#181818;stroke-width:0.5;" width="89" x="756" y="50"/><text fill="#000000" font-family="sans-serif" font-size="14" lengthAdjust="spacing" textLength="75" x="763" y="71.9659">OrdiniJDBC</text><rect fill="#E2E2F0" height="33.0679" rx="2.5" ry="2.5" style="stroke:#181818;stroke-width:0.5;" width="89" x="756" y="884.5822"/><text fill="#000000" font-family="sans-serif" font-size="14" lengthAdjust="spacing" textLength="75" x="763" y="906.5481">OrdiniJDBC</text><rect fill="#E2E2F0" height="33.0679" rx="2.5" ry="2.5" style="stroke:#181818;stroke-width:0.5;" width="103" x="855" y="50"/><text fill="#000000" font-family="sans-serif" font-size="14" lengthAdjust="spacing" textLength="89" x="862" y="71.9659">ProdottoJDBC</text><rect fill="#E2E2F0" height="33.0679" rx="2.5" ry="2.5" style="stroke:#181818;stroke-width:0.5;" width="103" x="855" y="884.5822"/><text fill="#000000" font-family="sans-serif" font-size="14" lengthAdjust="spacing" textLength="89" x="862" y="906.5481">ProdottoJDBC</text><rect fill="#E2E2F0" height="33.0679" rx="2.5" ry="2.5" style="stroke:#181818;stroke-width:0.5;" width="93" x="968" y="50"/><text fill="#000000" font-family="sans-serif" font-size="14" lengthAdjust="spacing" textLength="79" x="975" y="71.9659">ArticoliJDBC</text><rect fill="#E2E2F0" height="33.0679" rx="2.5" ry="2.5" style="stroke:#181818;stroke-width:0.5;" width="93" x="968" y="884.5822"/><text fill="#000000" font-family="sans-serif" font-size="14" lengthAdjust="spacing" textLength="79" x="975" y="906.5481">ArticoliJDBC</text><rect fill="#E2E2F0" height="33.0679" rx="2.5" ry="2.5" style="stroke:#181818;stroke-width:0.5;" width="98" x="1071" y="50"/><text fill="#000000" font-family="sans-serif" font-size="14" lengthAdjust="spacing" textLength="84" x="1078" y="71.9659">TesseraJDBC</text><rect fill="#E2E2F0" height="33.0679" rx="2.5" ry="2.5" style="stroke:#181818;stroke-width:0.5;" width="98" x="1071" y="884.5822"/><text fill="#000000" font-family="sans-serif" font-size="14" lengthAdjust="spacing" textLength="84" x="1078" y="906.5481">TesseraJDBC</text><rect fill="#FFFFFF" height="198.2361" style="stroke:#181818;stroke-width:1.0;" width="10" x="129.5" y="117.7739"/><rect fill="#FFFFFF" height="121.8241" style="stroke:#181818;stroke-width:1.0;" width="10" x="578.5" y="194.186"/><rect fill="#FFFFFF" height="31.706" style="stroke:#181818;stroke-width:1.0;" width="10" x="578.5" y="441.11"/><rect fill="#FFFFFF" height="95.118" style="stroke:#181818;stroke-width:1.0;" width="10" x="578.5" y="549.228"/><rect fill="#FFFFFF" height="95.118" style="stroke:#181818;stroke-width:1.0;" width="10" x="578.5" y="720.7581"/><rect fill="#FFFFFF" height="31.706" style="stroke:#181818;stroke-width:1.0;" width="10" x="795.5" y="225.892"/><rect fill="#FFFFFF" height="31.706" style="stroke:#181818;stroke-width:1.0;" width="10" x="1009.5" y="580.934"/><rect fill="#FFFFFF" height="31.706" style="stroke:#181818;stroke-width:1.0;" width="10" x="1115" y="752.4641"/><polygon fill="#181818" points="117.5,113.7739,127.5,117.7739,117.5,121.7739,121.5,117.7739" style="stroke:#181818;stroke-width:1.0;"/><line style="stroke:#181818;stroke-width:1.0;" x1="30.5" x2="123.5" y1="117.7739" y2="117.7739"/><text fill="#000000" font-family="sans-serif" font-size="13" lengthAdjust="spacing" textLength="80" x="37.5" y="111.9649">creaOrdine(c)</text><line style="stroke:#181818;stroke-width:1.0;" x1="139.5" x2="181.5" y1="149.4799" y2="149.4799"/><line style="stroke:#181818;stroke-width:1.0;" x1="181.5" x2="181.5" y1="149.4799" y2="162.4799"/><line style="stroke:#181818;stroke-width:1.0;" x1="140.5" x2="181.5" y1="162.4799" y2="162.4799"/><polygon fill="#181818" points="150.5,158.4799,140.5,162.4799,150.5,166.4799,146.5,162.4799" style="stroke:#181818;stroke-width:1.0;"/><text fill="#000000" font-family="sans-serif" font-size="13" lengthAdjust="spacing" textLength="85" x="146.5" y="143.6709">calcolaTotale()</text><polygon fill="#181818" points="566.5,190.186,576.5,194.186,566.5,198.186,570.5,194.186" style="stroke:#181818;stroke-width:1.0;"/><line style="stroke:#181818;stroke-width:1.0;" x1="139.5" x2="572.5" y1="194.186" y2="194.186"/><text fill="#000000" font-family="sans-serif" font-size="13" lengthAdjust="spacing" textLength="420" x="146.5" y="188.377">nuovoordine(codOrdine, dataAcquisto, totale, idCliente, idDipendente)</text><polygon fill="#181818" points="783.5,221.892,793.5,225.892,783.5,229.892,787.5,225.892" style="stroke:#181818;stroke-width:1.0;"/><line style="stroke:#181818;stroke-width:1.0;" x1="588.5" x2="789.5" y1="225.892" y2="225.892"/><text fill="#000000" font-family="sans-serif" font-size="13" lengthAdjust="spacing" textLength="111" x="595.5" y="220.083">newordine(ordine)</text><polygon fill="#181818" points="599.5,253.598,589.5,257.598,599.5,261.598,595.5,257.598" style="stroke:#181818;stroke-width:1.0;"/><line style="stroke:#181818;stroke-width:1.0;stroke-dasharray:2.0,2.0;" x1="593.5" x2="799.5" y1="257.598" y2="257.598"/><text fill="#000000" font-family="sans-serif" font-size="13" lengthAdjust="spacing" textLength="29" x="605.5" y="251.789">esito</text><path d="M70,272.598 L133,272.598 L133,282.304 L123,292.304 L70,292.304 L70,272.598 " fill="#EEEEEE" style="stroke:#000000;stroke-width:1.5;"/><rect fill="none" height="595.9842" style="stroke:#000000;stroke-width:1.5;" width="1109" x="70" y="272.598"/><text fill="#000000" font-family="sans-serif" font-size="13" font-weight="bold" lengthAdjust="spacing" textLength="18" x="85" y="287.495">alt</text><text fill="#000000" font-family="sans-serif" font-size="11" font-weight="bold" lengthAdjust="spacing" textLength="139" x="148" y="286.3569">[Errore creazione ordine]</text><polygon fill="#181818" points="145.5,312.01,135.5,316.01,145.5,320.01,141.5,316.01" style="stroke:#181818;stroke-width:1.0;"/><line style="stroke:#181818;stroke-width:1.0;stroke-dasharray:2.0,2.0;" x1="139.5" x2="582.5" y1="316.01" y2="316.01"/><text fill="#000000" font-family="sans-serif" font-size="13" lengthAdjust="spacing" textLength="278" x="151.5" y="310.201">showError("Errore nella creazione dell'ordine!")</text><line style="stroke:#000000;stroke-width:1.0;stroke-dasharray:2.0,2.0;" x1="70" x2="1179" y1="325.01" y2="325.01"/><text fill="#000000" font-family="sans-serif" font-size="11" font-weight="bold" lengthAdjust="spacing" textLength="86" x="75" y="336.7689">[Ordine creato]</text><line style="stroke:#181818;stroke-width:1.0;" x1="583.5" x2="625.5" y1="364.6979" y2="364.6979"/><line style="stroke:#181818;stroke-width:1.0;" x1="625.5" x2="625.5" y1="364.6979" y2="377.6979"/><line style="stroke:#181818;stroke-width:1.0;" x1="584.5" x2="625.5" y1="377.6979" y2="377.6979"/><polygon fill="#181818" points="594.5,373.6979,584.5,377.6979,594.5,381.6979,590.5,377.6979" style="stroke:#181818;stroke-width:1.0;"/><text fill="#000000" font-family="sans-serif" font-size="13" lengthAdjust="spacing" textLength="203" x="590.5" y="358.8889">updateOrdineModelAfterInsert(...)</text><polygon fill="#181818" points="145.5,405.404,135.5,409.404,145.5,413.404,141.5,409.404" style="stroke:#181818;stroke-width:1.0;"/><line style="stroke:#181818;stroke-width:1.0;stroke-dasharray:2.0,2.0;" x1="139.5" x2="582.5" y1="409.404" y2="409.404"/><text fill="#000000" font-family="sans-serif" font-size="13" lengthAdjust="spacing" textLength="117" x="151.5" y="403.595">conferma creazione</text><polygon fill="#181818" points="566.5,437.11,576.5,441.11,566.5,445.11,570.5,441.11" style="stroke:#181818;stroke-width:1.0;"/><line style="stroke:#181818;stroke-width:1.0;" x1="134.5" x2="572.5" y1="441.11" y2="441.11"/><text fill="#000000" font-family="sans-serif" font-size="13" lengthAdjust="spacing" textLength="57" x="141.5" y="435.301">CurrOrd()</text><polygon fill="#181818" points="145.5,468.816,135.5,472.816,145.5,476.816,141.5,472.816" style="stroke:#181818;stroke-width:1.0;"/><line style="stroke:#181818;stroke-width:1.0;stroke-dasharray:2.0,2.0;" x1="139.5" x2="582.5" y1="472.816" y2="472.816"/><text fill="#000000" font-family="sans-serif" font-size="13" lengthAdjust="spacing" textLength="63" x="151.5" y="467.007">codOrdine</text><line style="stroke:#181818;stroke-width:1.0;" x1="134.5" x2="176.5" y1="504.522" y2="504.522"/><line style="stroke:#181818;stroke-width:1.0;" x1="176.5" x2="176.5" y1="504.522" y2="517.522"/><line style="stroke:#181818;stroke-width:1.0;" x1="135.5" x2="176.5" y1="517.522" y2="517.522"/><polygon fill="#181818" points="145.5,513.522,135.5,517.522,145.5,521.522,141.5,517.522" style="stroke:#181818;stroke-width:1.0;"/><text fill="#000000" font-family="sans-serif" font-size="13" lengthAdjust="spacing" textLength="170" x="141.5" y="498.713">processArticoli(c, codOrdine)</text><polygon fill="#181818" points="566.5,545.228,576.5,549.228,566.5,553.228,570.5,549.228" style="stroke:#181818;stroke-width:1.0;"/><line style="stroke:#181818;stroke-width:1.0;" x1="134.5" x2="572.5" y1="549.228" y2="549.228"/><text fill="#000000" font-family="sans-serif" font-size="13" lengthAdjust="spacing" textLength="82" x="141.5" y="543.419">newarticoli(...)</text><polygon fill="#181818" points="997.5,576.934,1007.5,580.934,997.5,584.934,1001.5,580.934" style="stroke:#181818;stroke-width:1.0;"/><line style="stroke:#181818;stroke-width:1.0;" x1="588.5" x2="1003.5" y1="580.934" y2="580.934"/><text fill="#000000" font-family="sans-serif" font-size="13" lengthAdjust="spacing" textLength="112" x="595.5" y="575.125">newordine(articoli)</text><polygon fill="#181818" points="599.5,608.6401,589.5,612.6401,599.5,616.6401,595.5,612.6401" style="stroke:#181818;stroke-width:1.0;"/><line style="stroke:#181818;stroke-width:1.0;stroke-dasharray:2.0,2.0;" x1="593.5" x2="1013.5" y1="612.6401" y2="612.6401"/><text fill="#000000" font-family="sans-serif" font-size="13" lengthAdjust="spacing" textLength="29" x="605.5" y="606.831">esito</text><polygon fill="#181818" points="145.5,640.3461,135.5,644.3461,145.5,648.3461,141.5,644.3461" style="stroke:#181818;stroke-width:1.0;"/><line style="stroke:#181818;stroke-width:1.0;stroke-dasharray:2.0,2.0;" x1="139.5" x2="582.5" y1="644.3461" y2="644.3461"/><text fill="#000000" font-family="sans-serif" font-size="13" lengthAdjust="spacing" textLength="29" x="151.5" y="638.5371">esito</text><line style="stroke:#181818;stroke-width:1.0;" x1="134.5" x2="176.5" y1="676.0521" y2="676.0521"/><line style="stroke:#181818;stroke-width:1.0;" x1="176.5" x2="176.5" y1="676.0521" y2="689.0521"/><line style="stroke:#181818;stroke-width:1.0;" x1="135.5" x2="176.5" y1="689.0521" y2="689.0521"/><polygon fill="#181818" points="145.5,685.0521,135.5,689.0521,145.5,693.0521,141.5,689.0521" style="stroke:#181818;stroke-width:1.0;"/><text fill="#000000" font-family="sans-serif" font-size="13" lengthAdjust="spacing" textLength="194" x="141.5" y="670.2431">assegnaPunti(c, idCliente, totale)</text><polygon fill="#181818" points="566.5,716.7581,576.5,720.7581,566.5,724.7581,570.5,720.7581" style="stroke:#181818;stroke-width:1.0;"/><line style="stroke:#181818;stroke-width:1.0;" x1="134.5" x2="572.5" y1="720.7581" y2="720.7581"/><text fill="#000000" font-family="sans-serif" font-size="13" lengthAdjust="spacing" textLength="125" x="141.5" y="714.9491">uppunti(codcl, punti)</text><polygon fill="#181818" points="1103,748.4641,1113,752.4641,1103,756.4641,1107,752.4641" style="stroke:#181818;stroke-width:1.0;"/><line style="stroke:#181818;stroke-width:1.0;" x1="588.5" x2="1109" y1="752.4641" y2="752.4641"/><text fill="#000000" font-family="sans-serif" font-size="13" lengthAdjust="spacing" textLength="152" x="595.5" y="746.6551">updatepunti(codcl, punti)</text><polygon fill="#181818" points="599.5,780.1701,589.5,784.1701,599.5,788.1701,595.5,784.1701" style="stroke:#181818;stroke-width:1.0;"/><line style="stroke:#181818;stroke-width:1.0;stroke-dasharray:2.0,2.0;" x1="593.5" x2="1119" y1="784.1701" y2="784.1701"/><text fill="#000000" font-family="sans-serif" font-size="13" lengthAdjust="spacing" textLength="29" x="605.5" y="778.3611">esito</text><polygon fill="#181818" points="145.5,811.8762,135.5,815.8762,145.5,819.8762,141.5,815.8762" style="stroke:#181818;stroke-width:1.0;"/><line style="stroke:#181818;stroke-width:1.0;stroke-dasharray:2.0,2.0;" x1="139.5" x2="582.5" y1="815.8762" y2="815.8762"/><text fill="#000000" font-family="sans-serif" font-size="13" lengthAdjust="spacing" textLength="29" x="151.5" y="810.0671">esito</text><line style="stroke:#181818;stroke-width:1.0;" x1="134.5" x2="176.5" y1="847.5822" y2="847.5822"/><line style="stroke:#181818;stroke-width:1.0;" x1="176.5" x2="176.5" y1="847.5822" y2="860.5822"/><line style="stroke:#181818;stroke-width:1.0;" x1="135.5" x2="176.5" y1="860.5822" y2="860.5822"/><polygon fill="#181818" points="145.5,856.5822,135.5,860.5822,145.5,864.5822,141.5,860.5822" style="stroke:#181818;stroke-width:1.0;"/><text fill="#000000" font-family="sans-serif" font-size="13" lengthAdjust="spacing" textLength="39" x="141.5" y="841.7732">clean()</text><!--SRC=[lLJ1Rjim3BtxAxHUPWDkFc270bcw0Hqmh8Vk0mY9tGIeealJBR2ldsmvYQGuYtDPBh54lyV7PvAWXLZz5FI2LGSiLjiElAWTCADpz9NXfOYG5oRdaBFh7soijz_kF- -owqScGo9q4jYEZ-HE4K_OzyWmtLTHcRgzomMfJqepmfGJQzrKeCM-GNWprvs3bbZ01H7mH08EwsO1SAWslEq7UYEQavA9wLjbG62hNmVR2xLA9gvMMRDpTbG_FjxR3hqPJwdMevD9cf3qwEMO5D_dbF4l8KWyJo2tfMpihL1bS0a7JjGNPcAS7FrZoQEAYIeLVgcm1V_wt_G-mUkRcSM7C2HS9fm_Hi8FDyt4cIX9B2WZsOT4ry-oeyvGJwckA7hemcV12FbEGSNsMP0VVEWjgJURJREcF4t-6VabgUT20V_kdzt071JLCVTPZakQviQxMaf1r37fC6lxGQnrU-HkLbGJ6XFss8EXQugwouO_Q_4zOK6MBOinaX6SQVZ2dXEE2pulabphCOHTzil3u-1bCZXP2d5Fh35wwBg89wDTgwR3DMud6_Km61SPqpKy1bAITOQN3F_3R-qGV9Yli6ohiylaBm00]--></g></svg>