<?xml version="1.0" encoding="us-ascii" standalone="no"?><svg xmlns="http://www.w3.org/2000/svg" xmlns:xlink="http://www.w3.org/1999/xlink" contentStyleType="text/css" height="736px" preserveAspectRatio="none" style="width:762px;height:736px;background:#FFFFFF;" version="1.1" viewBox="0 0 762 736" width="762px" zoomAndPan="magnify"><defs/><g><rect fill="#FFFFFF" height="109.118" style="stroke:#181818;stroke-width:1.0;" width="10" x="168.5" y="117.7739"/><rect fill="#FFFFFF" height="37.706" style="stroke:#181818;stroke-width:1.0;" width="10" x="168.5" y="582.934"/><rect fill="#FFFFFF" height="300.3541" style="stroke:#181818;stroke-width:1.0;" width="10" x="348.5" y="282.5799"/><rect fill="#FFFFFF" height="31.706" style="stroke:#181818;stroke-width:1.0;" width="10" x="575.5" y="314.2859"/><rect fill="#FFFFFF" height="31.706" style="stroke:#181818;stroke-width:1.0;" width="10" x="575.5" y="449.11"/><rect fill="#FFFFFF" height="31.706" style="stroke:#181818;stroke-width:1.0;" width="10" x="681" y="512.522"/><rect fill="none" height="458.1601" style="stroke:#000000;stroke-width:1.5;" width="664.5" x="90.5" y="177.4799"/><rect fill="none" height="191.2361" style="stroke:#000000;stroke-width:1.5;" width="442" x="303" y="360.9919"/><line style="stroke:#181818;stroke-width:0.5;stroke-dasharray:5.0,5.0;" x1="30" x2="30" y1="84.0679" y2="652.6401"/><line style="stroke:#181818;stroke-width:0.5;stroke-dasharray:5.0,5.0;" x1="173.5" x2="173.5" y1="84.0679" y2="652.6401"/><line style="stroke:#181818;stroke-width:0.5;stroke-dasharray:5.0,5.0;" x1="353" x2="353" y1="84.0679" y2="652.6401"/><line style="stroke:#181818;stroke-width:0.5;stroke-dasharray:5.0,5.0;" x1="580" x2="580" y1="84.0679" y2="652.6401"/><line style="stroke:#181818;stroke-width:0.5;stroke-dasharray:5.0,5.0;" x1="686" x2="686" y1="84.0679" y2="652.6401"/><text fill="#000000" font-family="sans-serif" font-size="14" lengthAdjust="spacing" textLength="45" x="5" y="79.9659">Utente</text><ellipse cx="30.5" cy="13.5" fill="#E2E2F0" rx="8" ry="8" style="stroke:#181818;stroke-width:0.5;"/><path d="M30.5,21.5 L30.5,48.5 M17.5,29.5 L43.5,29.5 M30.5,48.5 L17.5,63.5 M30.5,48.5 L43.5,63.5 " fill="none" style="stroke:#181818;stroke-width:0.5;"/><text fill="#000000" font-family="sans-serif" font-size="14" lengthAdjust="spacing" textLength="45" x="5" y="666.606">Utente</text><ellipse cx="30.5" cy="679.208" fill="#E2E2F0" rx="8" ry="8" style="stroke:#181818;stroke-width:0.5;"/><path d="M30.5,687.208 L30.5,714.208 M17.5,695.208 L43.5,695.208 M30.5,714.208 L17.5,729.208 M30.5,714.208 L43.5,729.208 " fill="none" style="stroke:#181818;stroke-width:0.5;"/><rect fill="#E2E2F0" height="33.0679" rx="2.5" ry="2.5" style="stroke:#181818;stroke-width:0.5;" width="146" x="100.5" y="50"/><text fill="#000000" font-family="sans-serif" font-size="14" lengthAdjust="spacing" textLength="132" x="107.5" y="71.9659">NuovoClienteFrame</text><rect fill="#E2E2F0" height="33.0679" rx="2.5" ry="2.5" style="stroke:#181818;stroke-width:0.5;" width="146" x="100.5" y="651.6401"/><text fill="#000000" font-family="sans-serif" font-size="14" lengthAdjust="spacing" textLength="132" x="107.5" y="673.606">NuovoClienteFrame</text><rect fill="#E2E2F0" height="33.0679" rx="2.5" ry="2.5" style="stroke:#181818;stroke-width:0.5;" width="81" x="313" y="50"/><text fill="#000000" font-family="sans-serif" font-size="14" lengthAdjust="spacing" textLength="67" x="320" y="71.9659">Controller</text><rect fill="#E2E2F0" height="33.0679" rx="2.5" ry="2.5" style="stroke:#181818;stroke-width:0.5;" width="81" x="313" y="651.6401"/><text fill="#000000" font-family="sans-serif" font-size="14" lengthAdjust="spacing" textLength="67" x="320" y="673.606">Controller</text><rect fill="#E2E2F0" height="33.0679" rx="2.5" ry="2.5" style="stroke:#181818;stroke-width:0.5;" width="93" x="534" y="50"/><text fill="#000000" font-family="sans-serif" font-size="14" lengthAdjust="spacing" textLength="79" x="541" y="71.9659">ClienteJDBC</text><rect fill="#E2E2F0" height="33.0679" rx="2.5" ry="2.5" style="stroke:#181818;stroke-width:0.5;" width="93" x="534" y="651.6401"/><text fill="#000000" font-family="sans-serif" font-size="14" lengthAdjust="spacing" textLength="79" x="541" y="673.606">ClienteJDBC</text><rect fill="#E2E2F0" height="33.0679" rx="2.5" ry="2.5" style="stroke:#181818;stroke-width:0.5;" width="98" x="637" y="50"/><text fill="#000000" font-family="sans-serif" font-size="14" lengthAdjust="spacing" textLength="84" x="644" y="71.9659">TesseraJDBC</text><rect fill="#E2E2F0" height="33.0679" rx="2.5" ry="2.5" style="stroke:#181818;stroke-width:0.5;" width="98" x="637" y="651.6401"/><text fill="#000000" font-family="sans-serif" font-size="14" lengthAdjust="spacing" textLength="84" x="644" y="673.606">TesseraJDBC</text><rect fill="#FFFFFF" height="109.118" style="stroke:#181818;stroke-width:1.0;" width="10" x="168.5" y="117.7739"/><rect fill="#FFFFFF" height="37.706" style="stroke:#181818;stroke-width:1.0;" width="10" x="168.5" y="582.934"/><rect fill="#FFFFFF" height="300.3541" style="stroke:#181818;stroke-width:1.0;" width="10" x="348.5" y="282.5799"/><rect fill="#FFFFFF" height="31.706" style="stroke:#181818;stroke-width:1.0;" width="10" x="575.5" y="314.2859"/><rect fill="#FFFFFF" height="31.706" style="stroke:#181818;stroke-width:1.0;" width="10" x="575.5" y="449.11"/><rect fill="#FFFFFF" height="31.706" style="stroke:#181818;stroke-width:1.0;" width="10" x="681" y="512.522"/><polygon fill="#181818" points="156.5,113.7739,166.5,117.7739,156.5,121.7739,160.5,117.7739" style="stroke:#181818;stroke-width:1.0;"/><line style="stroke:#181818;stroke-width:1.0;" x1="30.5" x2="162.5" y1="117.7739" y2="117.7739"/><text fill="#000000" font-family="sans-serif" font-size="13" lengthAdjust="spacing" textLength="119" x="37.5" y="111.9649">inserisce dati cliente</text><line style="stroke:#181818;stroke-width:1.0;" x1="178.5" x2="220.5" y1="149.4799" y2="149.4799"/><line style="stroke:#181818;stroke-width:1.0;" x1="220.5" x2="220.5" y1="149.4799" y2="162.4799"/><line style="stroke:#181818;stroke-width:1.0;" x1="179.5" x2="220.5" y1="162.4799" y2="162.4799"/><polygon fill="#181818" points="189.5,158.4799,179.5,162.4799,189.5,166.4799,185.5,162.4799" style="stroke:#181818;stroke-width:1.0;"/><text fill="#000000" font-family="sans-serif" font-size="13" lengthAdjust="spacing" textLength="89" x="185.5" y="143.6709">validateFields()</text><path d="M90.5,177.4799 L153.5,177.4799 L153.5,187.186 L143.5,197.186 L90.5,197.186 L90.5,177.4799 " fill="#EEEEEE" style="stroke:#000000;stroke-width:1.5;"/><rect fill="none" height="458.1601" style="stroke:#000000;stroke-width:1.5;" width="664.5" x="90.5" y="177.4799"/><text fill="#000000" font-family="sans-serif" font-size="13" font-weight="bold" lengthAdjust="spacing" textLength="18" x="105.5" y="192.377">alt</text><text fill="#000000" font-family="sans-serif" font-size="11" font-weight="bold" lengthAdjust="spacing" textLength="99" x="168.5" y="191.2389">[Campi non validi]</text><line style="stroke:#181818;stroke-width:1.0;" x1="178.5" x2="220.5" y1="225.892" y2="225.892"/><line style="stroke:#181818;stroke-width:1.0;" x1="220.5" x2="220.5" y1="225.892" y2="238.892"/><line style="stroke:#181818;stroke-width:1.0;" x1="173.5" x2="220.5" y1="238.892" y2="238.892"/><polygon fill="#181818" points="183.5,234.892,173.5,238.892,183.5,242.892,179.5,238.892" style="stroke:#181818;stroke-width:1.0;"/><text fill="#000000" font-family="sans-serif" font-size="13" lengthAdjust="spacing" textLength="156" x="185.5" y="220.083">mostraErroreValidazione()</text><line style="stroke:#000000;stroke-width:1.0;stroke-dasharray:2.0,2.0;" x1="90.5" x2="755" y1="242.892" y2="242.892"/><text fill="#000000" font-family="sans-serif" font-size="11" font-weight="bold" lengthAdjust="spacing" textLength="75" x="95.5" y="254.6509">[Campi validi]</text><polygon fill="#181818" points="336.5,278.5799,346.5,282.5799,336.5,286.5799,340.5,282.5799" style="stroke:#181818;stroke-width:1.0;"/><line style="stroke:#181818;stroke-width:1.0;" x1="173.5" x2="342.5" y1="282.5799" y2="282.5799"/><text fill="#000000" font-family="sans-serif" font-size="13" lengthAdjust="spacing" textLength="56" x="180.5" y="276.7709">newclt(...)</text><polygon fill="#181818" points="563.5,310.2859,573.5,314.2859,563.5,318.2859,567.5,314.2859" style="stroke:#181818;stroke-width:1.0;"/><line style="stroke:#181818;stroke-width:1.0;" x1="358.5" x2="569.5" y1="314.2859" y2="314.2859"/><text fill="#000000" font-family="sans-serif" font-size="13" lengthAdjust="spacing" textLength="105" x="365.5" y="308.4769">setNewCt(cliente)</text><polygon fill="#181818" points="369.5,341.9919,359.5,345.9919,369.5,349.9919,365.5,345.9919" style="stroke:#181818;stroke-width:1.0;"/><line style="stroke:#181818;stroke-width:1.0;stroke-dasharray:2.0,2.0;" x1="363.5" x2="579.5" y1="345.9919" y2="345.9919"/><text fill="#000000" font-family="sans-serif" font-size="13" lengthAdjust="spacing" textLength="29" x="375.5" y="340.1829">esito</text><path d="M303,360.9919 L366,360.9919 L366,370.6979 L356,380.6979 L303,380.6979 L303,360.9919 " fill="#EEEEEE" style="stroke:#000000;stroke-width:1.5;"/><rect fill="none" height="191.2361" style="stroke:#000000;stroke-width:1.5;" width="442" x="303" y="360.9919"/><text fill="#000000" font-family="sans-serif" font-size="13" font-weight="bold" lengthAdjust="spacing" textLength="18" x="318" y="375.8889">alt</text><text fill="#000000" font-family="sans-serif" font-size="11" font-weight="bold" lengthAdjust="spacing" textLength="87" x="381" y="374.7508">[Cliente creato]</text><line style="stroke:#181818;stroke-width:1.0;" x1="358.5" x2="400.5" y1="404.404" y2="404.404"/><line style="stroke:#181818;stroke-width:1.0;" x1="400.5" x2="400.5" y1="404.404" y2="417.404"/><line style="stroke:#181818;stroke-width:1.0;" x1="359.5" x2="400.5" y1="417.404" y2="417.404"/><polygon fill="#181818" points="369.5,413.404,359.5,417.404,369.5,421.404,365.5,417.404" style="stroke:#181818;stroke-width:1.0;"/><text fill="#000000" font-family="sans-serif" font-size="13" lengthAdjust="spacing" textLength="203" x="365.5" y="398.595">updateClienteModelAfterInsert(...)</text><polygon fill="#181818" points="563.5,445.11,573.5,449.11,563.5,453.11,567.5,449.11" style="stroke:#181818;stroke-width:1.0;"/><line style="stroke:#181818;stroke-width:1.0;" x1="358.5" x2="569.5" y1="449.11" y2="449.11"/><text fill="#000000" font-family="sans-serif" font-size="13" lengthAdjust="spacing" textLength="91" x="365.5" y="443.301">getIdCt(codFis)</text><polygon fill="#181818" points="369.5,476.816,359.5,480.816,369.5,484.816,365.5,480.816" style="stroke:#181818;stroke-width:1.0;"/><line style="stroke:#181818;stroke-width:1.0;stroke-dasharray:2.0,2.0;" x1="363.5" x2="579.5" y1="480.816" y2="480.816"/><text fill="#000000" font-family="sans-serif" font-size="13" lengthAdjust="spacing" textLength="80" x="375.5" y="475.007">codClienteDb</text><polygon fill="#181818" points="669,508.522,679,512.522,669,516.522,673,512.522" style="stroke:#181818;stroke-width:1.0;"/><line style="stroke:#181818;stroke-width:1.0;" x1="358.5" x2="675" y1="512.522" y2="512.522"/><text fill="#000000" font-family="sans-serif" font-size="13" lengthAdjust="spacing" textLength="156" x="365.5" y="506.713">newtessera(codClienteDb)</text><polygon fill="#181818" points="369.5,540.228,359.5,544.228,369.5,548.228,365.5,544.228" style="stroke:#181818;stroke-width:1.0;"/><line style="stroke:#181818;stroke-width:1.0;stroke-dasharray:2.0,2.0;" x1="363.5" x2="685" y1="544.228" y2="544.228"/><text fill="#000000" font-family="sans-serif" font-size="13" lengthAdjust="spacing" textLength="29" x="375.5" y="538.419">esito</text><polygon fill="#181818" points="189.5,578.934,179.5,582.934,189.5,586.934,185.5,582.934" style="stroke:#181818;stroke-width:1.0;"/><line style="stroke:#181818;stroke-width:1.0;stroke-dasharray:2.0,2.0;" x1="183.5" x2="352.5" y1="582.934" y2="582.934"/><text fill="#000000" font-family="sans-serif" font-size="13" lengthAdjust="spacing" textLength="117" x="195.5" y="577.125">conferma creazione</text><line style="stroke:#181818;stroke-width:1.0;" x1="178.5" x2="220.5" y1="619.6401" y2="619.6401"/><line style="stroke:#181818;stroke-width:1.0;" x1="220.5" x2="220.5" y1="619.6401" y2="632.6401"/><line style="stroke:#181818;stroke-width:1.0;" x1="173.5" x2="220.5" y1="632.6401" y2="632.6401"/><polygon fill="#181818" points="183.5,628.6401,173.5,632.6401,183.5,636.6401,179.5,632.6401" style="stroke:#181818;stroke-width:1.0;"/><text fill="#000000" font-family="sans-serif" font-size="13" lengthAdjust="spacing" textLength="39" x="185.5" y="613.831">clean()</text><!--SRC=[ZPF1Ri8m38RlVOeSom4UO8T9MnaIIEEqxUubPhAK9bLYGDhJBsawI5kWpT6EF__E7uDawyGdes4i6d1CaXemBFP7UxALffZOEAZxsSeQTbPhTFrmkhzRlrQz-0TwZmxQU96QYUNpk8Tu4cJ2JV8IXG8c8LEs0CbqWb0srZMct46VG5E0uePGAryk2j11CjGD2MDDIbCXmfcDhArd1s_EMOTVBVwNhC70ZXY53sIZzjXrd-fyVUtGqk1PQYvNgzMC9l729PsP5kCPDVQuMXUQUEGzdYikk_TV34YPpoqgAruE1QCdjaEfGq9hHOe9wH2wYXiwS_InYNvsTUzMeNuvCBfj_4FP4qrD-uEyLN5OgpRahpLtrKxE74XTVlrzgNWm_bXXjZB9T4w1CaVVa9glsdyoPpsmPw1nI4AZHl_cpbf8QmxeQcYjR3TYv7__BqvyuTdxA3M2cRLzOPW_]--></g></svg>